<svg id="그룹_39" data-name="그룹 39" xmlns="http://www.w3.org/2000/svg" xmlns:xlink="http://www.w3.org/1999/xlink" width="46.963" height="46.963" viewBox="0 0 46.963 46.963">
  <defs>
    <clipPath id="clip-path">
      <rect id="사각형_59" data-name="사각형 59" width="46.963" height="46.963" transform="translate(0 0)" fill="none"/>
    </clipPath>
  </defs>
  <g id="그룹_27" data-name="그룹 27" clip-path="url(#clip-path)">
    <path id="패스_84" data-name="패스 84" d="M23.482,46.713h0A23.232,23.232,0,1,1,46.714,23.481,23.232,23.232,0,0,1,23.482,46.713Z" fill="none" stroke="#e6e6e6" stroke-miterlimit="10" stroke-width="0.5"/>
    <path id="패스_85" data-name="패스 85" d="M23.482,16.717c2.2,0,2.464.009,3.334.049a4.551,4.551,0,0,1,1.532.284,2.733,2.733,0,0,1,1.565,1.565,4.57,4.57,0,0,1,.285,1.532c.039.87.048,1.131.048,3.334s-.009,2.464-.048,3.334a4.57,4.57,0,0,1-.285,1.532,2.739,2.739,0,0,1-1.565,1.566,4.577,4.577,0,0,1-1.532.284c-.87.039-1.131.048-3.334.048s-2.464-.009-3.334-.048a4.577,4.577,0,0,1-1.532-.284,2.739,2.739,0,0,1-1.565-1.566,4.57,4.57,0,0,1-.285-1.532c-.039-.87-.048-1.131-.048-3.334s.009-2.464.048-3.334a4.57,4.57,0,0,1,.285-1.532,2.733,2.733,0,0,1,1.565-1.565,4.551,4.551,0,0,1,1.532-.284c.87-.04,1.131-.049,3.334-.049m0-1.486c-2.241,0-2.522.01-3.4.05a6.051,6.051,0,0,0-2,.383,4.224,4.224,0,0,0-2.413,2.413,6.053,6.053,0,0,0-.383,2c-.041.88-.05,1.161-.05,3.4s.009,2.522.05,3.4a6.051,6.051,0,0,0,.383,2A4.217,4.217,0,0,0,18.078,31.3a6.049,6.049,0,0,0,2,.384c.88.04,1.161.049,3.4.049s2.521-.009,3.4-.049a6.049,6.049,0,0,0,2-.384A4.217,4.217,0,0,0,31.3,28.885a6.051,6.051,0,0,0,.383-2c.041-.88.05-1.161.05-3.4s-.009-2.521-.05-3.4a6.053,6.053,0,0,0-.383-2,4.224,4.224,0,0,0-2.413-2.413,6.051,6.051,0,0,0-2-.383c-.881-.04-1.161-.05-3.4-.05" fill="#787878"/>
    <path id="패스_86" data-name="패스 86" d="M23.482,19.245a4.236,4.236,0,1,0,4.237,4.237,4.236,4.236,0,0,0-4.237-4.237m0,6.987a2.75,2.75,0,1,1,2.75-2.75,2.75,2.75,0,0,1-2.75,2.75" fill="#787878"/>
    <path id="패스_87" data-name="패스 87" d="M28.876,19.078a.99.99,0,1,1-.99-.99.99.99,0,0,1,.99.99" fill="#787878"/>
  </g>
</svg>
