<svg xmlns="http://www.w3.org/2000/svg" xmlns:xlink="http://www.w3.org/1999/xlink" width="26" height="26.958" viewBox="0 0 26 26.958">
  <defs>
    <clipPath id="clip-path">
      <rect id="사각형_454" data-name="사각형 454" width="26" height="26.958" fill="none"/>
    </clipPath>
  </defs>
  <g id="그룹_184" data-name="그룹 184" transform="translate(0 0)">
    <g id="그룹_183" data-name="그룹 183" transform="translate(0 0)" clip-path="url(#clip-path)">
      <path id="패스_777" data-name="패스 777" d="M12.993,26.941c-3.918,0-7.837-.021-11.755.017C.362,26.966-.011,26.764,0,25.8c.047-3.917,0-7.837.045-11.755A2.214,2.214,0,0,1,.59,12.671C4.461,8.579,8.379,4.531,12.256.446c.585-.619.951-.577,1.515.017C17.65,4.548,21.566,8.6,25.44,12.685a2.061,2.061,0,0,1,.522,1.274c.038,3.953,0,7.907.038,11.86.009.876-.279,1.146-1.146,1.138-3.953-.037-7.906-.017-11.86-.017m.061-25.755a3.994,3.994,0,0,0-.38.3C8.92,5.4,5.16,9.3,1.432,13.243a1.926,1.926,0,0,0-.406,1.213c-.031,3.288-.017,6.577-.017,9.866V25.88H9.326c.024-.339.059-.612.059-.885,0-2.659.039-5.319-.016-7.977-.019-.939.3-1.215,1.21-1.18,1.641.062,3.29.065,4.931,0,.908-.036,1.139.318,1.126,1.159-.04,2.554-.017,5.108-.018,7.662,0,.405,0,.81,0,1.219h8.37c0-3.993.013-7.9-.023-11.817a1.666,1.666,0,0,0-.51-.964c-1.944-2.061-3.912-4.1-5.873-6.146-1.835-1.913-3.67-3.825-5.528-5.764M10.422,25.878H15.6V16.919H10.422Z" transform="translate(0 0)" fill="#fff"/>
    </g>
  </g>
</svg>
