<svg xmlns="http://www.w3.org/2000/svg" xmlns:xlink="http://www.w3.org/1999/xlink" width="31.578" height="30.016" viewBox="0 0 31.578 30.016">
  <defs>
    <clipPath id="clip-path">
      <rect id="사각형_9" data-name="사각형 9" width="31.578" height="30.016" fill="none"/>
    </clipPath>
  </defs>
  <g id="그룹_1" data-name="그룹 1" clip-path="url(#clip-path)">
    <path id="패스_8" data-name="패스 8" d="M114.784,298.949l-1.91,1.353a.628.628,0,0,0-.265.512v2.7a.627.627,0,0,0,.627.627h22.377a.627.627,0,1,0,0-1.255h-21.75v-1.749l1.646-1.166a.627.627,0,0,0-.725-1.024Z" transform="translate(-105.544 -280.084)" fill="#fff"/>
    <path id="패스_9" data-name="패스 9" d="M144.62,394.989h.627a1.439,1.439,0,0,1,.113-.563,1.455,1.455,0,0,1,.525-.637,1.45,1.45,0,0,1,1.371-.133,1.456,1.456,0,0,1,.637.525,1.45,1.45,0,0,1,.133,1.371,1.455,1.455,0,0,1-.525.637,1.45,1.45,0,0,1-1.371.133,1.454,1.454,0,0,1-.637-.525,1.436,1.436,0,0,1-.247-.808h-1.255a2.7,2.7,0,1,0,.462-1.511,2.7,2.7,0,0,0-.462,1.511Z" transform="translate(-134.959 -367.675)" fill="#fff"/>
    <path id="패스_10" data-name="패스 10" d="M367,394.989h.627a1.44,1.44,0,0,1,.113-.563,1.454,1.454,0,0,1,.525-.637,1.45,1.45,0,0,1,1.371-.133,1.456,1.456,0,0,1,.637.525,1.45,1.45,0,0,1,.133,1.371,1.454,1.454,0,0,1-.525.637,1.45,1.45,0,0,1-1.371.133,1.454,1.454,0,0,1-.637-.525,1.435,1.435,0,0,1-.247-.808h-1.255a2.7,2.7,0,1,0,.462-1.511,2.7,2.7,0,0,0-.462,1.511Z" transform="translate(-343.388 -367.675)" fill="#fff"/>
    <path id="패스_11" data-name="패스 11" d="M7.149,7.829,5.981,3.461a.628.628,0,0,0-.271-.368L.962.1a.627.627,0,1,0-.67,1.061L4.832,4.023l1.1,4.131a.627.627,0,0,0,1.212-.324Z" transform="translate(0 0)" fill="#fff"/>
    <path id="패스_12" data-name="패스 12" d="M119.317,117.993l-.606-.162-3.06,11.44.606.162v-.627H98.452l-2.725-10.186h23.59v-.627l-.606-.162.606.162v-.627H94.91a.627.627,0,0,0-.606.79l3.061,11.44a.627.627,0,0,0,.606.465h18.287a.627.627,0,0,0,.606-.465l3.06-11.44a.627.627,0,0,0-.606-.79Z" transform="translate(-88.367 -110.002)" fill="#fff"/>
  </g>
</svg>
